<?xml version="1.0" encoding="UTF-8" standalone="no"?>
<!-- Created with Inkscape (http://www.inkscape.org/) -->

<svg
   width="59.800785mm"
   height="38.340408mm"
   viewBox="0 0 59.800785 38.340408"
   version="1.1"
   id="svg1"
   xml:space="preserve"
   xmlns="http://www.w3.org/2000/svg"
   xmlns:svg="http://www.w3.org/2000/svg"><defs
     id="defs1" /><g
     id="layer1"
     transform="translate(-67.949268,-33.303618)"><g
       id="g1"
       transform="translate(3.0836927e-7,0.36802947)"><path
         style="fill:#d1d1d1;fill-opacity:1"
         d="m 94.749438,43.581456 c 0.06923,-0.0277 0.151946,-0.0243 0.183814,0.0076 0.03187,0.03187 -0.02477,0.05453 -0.125873,0.05037 -0.111721,-0.0046 -0.134446,-0.02733 -0.05794,-0.05794 z"
         id="path18" /><path
         style="fill:#c6c6c6;fill-opacity:1"
         d="m 120.63727,51.347434 c 0.11868,-0.02286 0.31288,-0.02286 0.43156,0 0.11868,0.02286 0.0216,0.04156 -0.21578,0.04156 -0.23736,0 -0.33446,-0.0187 -0.21578,-0.04156 z"
         id="path17" /><path
         style="fill:#bfbfbf;fill-opacity:1"
         d="m 121.64425,51.344623 c 0.25055,-0.01976 0.66053,-0.01976 0.91108,0 0.25054,0.01976 0.0456,0.03592 -0.45554,0.03592 -0.5011,0 -0.70609,-0.01616 -0.45554,-0.03592 z"
         id="path16" /><path
         style="fill:#bcbcbc;fill-opacity:1"
         d="m 123.08462,51.348656 c 0.0933,-0.02432 0.22278,-0.02272 0.28771,0.0036 0.0649,0.02627 -0.0114,0.04616 -0.16966,0.04421 -0.15824,-0.002 -0.21136,-0.02345 -0.11805,-0.04776 z"
         id="path15" /><path
         style="fill:#b8b8b8;fill-opacity:1"
         d="m 123.51436,51.351601 c 0.0659,-0.02661 0.17382,-0.02661 0.23976,0 0.0659,0.0266 0.012,0.04837 -0.11988,0.04837 -0.13187,0 -0.18582,-0.02177 -0.11988,-0.04837 z"
         id="path14" /><path
         style="fill:#b5b5b5;fill-opacity:1"
         d="m 80.293631,57.784677 c 0.0046,-0.111722 0.02733,-0.134446 0.05794,-0.05794 0.0277,0.06923 0.0243,0.151946 -0.0076,0.183814 -0.03187,0.03187 -0.05454,-0.02477 -0.05037,-0.125873 z"
         id="path13" /><path
         style="fill:#aaaaaa;fill-opacity:1"
         d="m 123.99387,51.351601 c 0.0659,-0.02661 0.17383,-0.02661 0.23976,0 0.0659,0.0266 0.012,0.04837 -0.11988,0.04837 -0.13186,0 -0.18581,-0.02177 -0.11988,-0.04837 z"
         id="path12" /><path
         style="fill:#a0a0a0;fill-opacity:1"
         d="m 124.38348,51.349603 c 0.0692,-0.0277 0.15195,-0.0243 0.18381,0.0076 0.0319,0.03187 -0.0248,0.05454 -0.12587,0.05037 -0.11172,-0.0046 -0.13445,-0.02733 -0.0579,-0.05794 z"
         id="path11" /><path
         style="fill:#959595;fill-opacity:1"
         d="m 124.67119,51.349603 c 0.0692,-0.0277 0.15195,-0.0243 0.18381,0.0076 0.0319,0.03187 -0.0248,0.05454 -0.12587,0.05037 -0.11172,-0.0046 -0.13445,-0.02733 -0.0579,-0.05794 z"
         id="path10" /><path
         style="fill:#8e8e8e;fill-opacity:1"
         d="m 125.00268,51.348656 c 0.0933,-0.02432 0.22278,-0.02272 0.28771,0.0036 0.0649,0.02627 -0.0114,0.04616 -0.16966,0.04421 -0.15824,-0.002 -0.21136,-0.02345 -0.11805,-0.04776 z"
         id="path9" /><path
         style="fill:#797979;fill-opacity:1"
         d="m 125.43841,51.349603 c 0.0692,-0.0277 0.15195,-0.0243 0.18382,0.0076 0.0319,0.03187 -0.0248,0.05454 -0.12588,0.05037 -0.11172,-0.0046 -0.13444,-0.02733 -0.0579,-0.05794 z"
         id="path8" /><path
         style="fill:#757575;fill-opacity:1"
         d="m 98.814044,70.451872 c 0.002,-0.15824 0.02345,-0.211364 0.04776,-0.118054 0.02432,0.09331 0.02272,0.22278 -0.0036,0.287709 -0.02627,0.06493 -0.04617,-0.01141 -0.04421,-0.169655 z"
         id="path7" /><path
         style="fill:#6e6e6e;fill-opacity:1"
         d="m 74.078162,45.594473 c 0.09331,-0.02432 0.22278,-0.02272 0.287709,0.0036 0.06493,0.02627 -0.01141,0.04617 -0.169655,0.04421 -0.15824,-0.002 -0.211364,-0.02345 -0.118054,-0.04776 z"
         id="path6" /><path
         style="fill:#676767;fill-opacity:1"
         d="m 125.81603,51.351601 c 0.0659,-0.02661 0.17383,-0.02661 0.23976,0 0.0659,0.0266 0.012,0.04837 -0.11988,0.04837 -0.13187,0 -0.18581,-0.02177 -0.11988,-0.04837 z"
         id="path5" /><path
         style="fill:#646464;fill-opacity:1"
         d="m 98.802919,69.964365 c 0.0046,-0.111722 0.02733,-0.134447 0.05794,-0.05794 0.0277,0.06923 0.0243,0.151947 -0.0076,0.183814 -0.03187,0.03187 -0.05453,-0.02477 -0.05037,-0.125872 z M 73.74667,45.59542 c 0.06923,-0.0277 0.151947,-0.0243 0.183814,0.0076 0.03187,0.03187 -0.02478,0.05453 -0.125872,0.05037 -0.111722,-0.0046 -0.134447,-0.02733 -0.05794,-0.05794 z m -4.585364,-6.875716 c 0,-0.01991 0.07552,-0.09544 0.16783,-0.16783 0.152108,-0.119291 0.1555,-0.115899 0.03621,0.03621 -0.125285,0.159751 -0.204039,0.210554 -0.204039,0.131622 z"
         id="path4" /><path
         style="fill:#525252;fill-opacity:1"
         d="m 126.39744,51.349603 c 0.0692,-0.0277 0.15195,-0.0243 0.18382,0.0076 0.0319,0.03187 -0.0248,0.05454 -0.12587,0.05037 -0.11173,-0.0046 -0.13445,-0.02733 -0.0579,-0.05794 z"
         id="path3" /><path
         style="fill:#414141;fill-opacity:1"
         d="m 80.65169,55.473434 c 0.06923,-0.0277 0.151946,-0.0243 0.183814,0.0076 0.03187,0.03187 -0.02478,0.05453 -0.125873,0.05037 -0.111722,-0.0046 -0.134446,-0.02733 -0.05794,-0.05794 z"
         id="path2" /><path
         style="fill:#333333;fill-opacity:1"
         d="m 94.997071,71.084034 c -0.355422,-0.161409 -0.60829,-0.419176 -1.79616,-1.83095 -0.459109,-0.545648 -1.217654,-1.763221 -1.621929,-2.603427 -0.47881,-0.995114 -0.574177,-1.250231 -0.848388,-2.269536 -0.103747,-0.385648 -0.238848,-0.78159 -0.300225,-0.87987 -0.142265,-0.227804 -0.759007,-0.576769 -1.019348,-0.576769 -0.489555,0 -2.573773,-1.061215 -3.452587,-1.757944 -0.403352,-0.31978 -1.349504,-1.202303 -2.10256,-1.961162 l -1.369192,-1.379745 -0.405014,0.06607 c -0.440344,0.07183 -0.77471,0.323406 -0.996459,0.749728 -0.135087,0.259712 -0.150061,0.264733 -0.322938,0.108282 -0.250234,-0.226459 -0.411807,-0.765636 -0.355419,-1.186046 0.04484,-0.334321 0.278635,-0.938345 0.624071,-1.612343 0.187116,-0.365092 0.128042,-0.449735 -0.313875,-0.449735 -0.395677,0 -0.723669,0.276119 -1.094329,0.921255 l -0.259309,0.45133 -0.151335,-0.259524 c -0.08323,-0.142738 -0.205358,-0.504006 -0.271385,-0.802817 -0.185823,-0.840947 0.08524,-1.648211 0.819458,-2.440443 0.224116,-0.241825 0.245838,-0.32333 0.18835,-0.706723 -0.03574,-0.238355 -0.104155,-0.506575 -0.152033,-0.596045 -0.04788,-0.08947 -0.257669,-0.715237 -0.466201,-1.390594 -0.494145,-1.60035 -1.485553,-3.636379 -1.931364,-3.966392 -0.495012,-0.366435 -1.7903,-0.928672 -2.43546,-1.057144 -0.466833,-0.09296 -0.952042,-0.08451 -2.571231,0.04477 -2.315027,0.184847 -2.292237,0.189625 -2.900904,-0.608257 -0.73629,-0.96518 -1.219769,-2.109576 -1.48597,-3.517292 -0.217461,-1.149973 0.147616,-1.810486 1.985272,-3.591842 1.068159,-1.035434 1.813815,-1.643794 2.756853,-2.249239 0.407934,-0.2619 1.161253,-0.888932 1.674041,-1.393404 0.904726,-0.890052 0.95721,-0.92514 1.771826,-1.18453 0.960608,-0.305877 1.166709,-0.299194 2.414429,0.07829 0.47472,0.14362 1.294691,0.320643 1.822158,0.393384 3.052726,0.42099 5.513306,2.073354 6.354724,4.267415 0.315637,0.823049 0.497624,1.66818 0.588875,2.734689 l 0.09834,1.149385 0.363103,0.310091 c 0.636946,0.543954 1.813606,1.071498 2.616824,1.173227 1.527786,0.193497 3.652227,0.380451 4.923387,0.433266 l 1.327022,0.05513 0.742053,0.421057 c 0.40813,0.231581 1.333952,0.769751 2.057384,1.195934 0.723434,0.426184 1.342584,0.774879 1.375884,0.774879 0.0333,0 0.12869,0.05914 0.21196,0.131423 0.0833,0.07228 0.36478,0.248735 0.62558,0.392115 0.26079,0.14338 0.69235,0.443551 0.95903,0.667047 0.46068,0.386091 1.42488,1.015185 1.55595,1.015185 0.0337,0 0.29026,0.108345 0.57017,0.240767 1.6559,0.783366 3.6231,1.316964 7.22977,1.961059 4.77045,0.85193 4.9539,0.867072 10.50477,0.867072 h 4.66266 l 0.28034,0.280332 c 0.54902,0.549025 0.33478,0.878293 -1.26166,1.939062 -1.30255,0.865493 -1.38253,0.915073 -2.24618,1.392325 -0.67079,0.370675 -5.18624,2.618741 -6.37756,3.175129 -1.80099,0.841133 -2.10767,0.977844 -3.2607,1.453578 -0.65933,0.272036 -1.32826,0.549319 -1.4865,0.616185 -0.34567,0.146068 -2.79976,0.934051 -3.74021,1.200946 -1.27118,0.360752 -2.22367,0.567753 -4.03446,0.876792 -0.9986,0.170426 -2.00581,0.380089 -2.23825,0.465917 -0.79728,0.2944 -1.86878,1.535513 -2.62767,3.043629 -0.79563,1.581113 -1.308625,3.161199 -1.397539,4.304565 -0.05908,0.759702 -0.06265,0.768119 -0.395278,0.930448 -0.507504,0.247675 -2.862459,0.240786 -3.414664,-0.01 z M 76.656956,37.538848 c 0.433361,-0.379901 0.448088,-1.013638 0.0332,-1.428528 -0.558042,-0.558043 -1.503793,0.04856 -1.350412,0.866147 0.127586,0.680091 0.837293,0.983098 1.317214,0.562381 z"
         id="path1" /></g></g></svg>
