<?xml version="1.0" encoding="UTF-8" standalone="no"?>
<!-- Created with Inkscape (http://www.inkscape.org/) -->

<svg
   width="77.595467mm"
   height="85.207085mm"
   viewBox="0 0 77.595468 85.207084"
   version="1.1"
   id="svg1"
   xml:space="preserve"
   xmlns="http://www.w3.org/2000/svg"
   xmlns:svg="http://www.w3.org/2000/svg"><defs
     id="defs1" /><g
     id="layer1"
     transform="translate(-51.613179,-26.183801)"><g
       id="g1"
       transform="translate(0.36802959,2.5762084)"><path
         style="fill:#929292;fill-opacity:1"
         d="m 71.71999,82.95234 c 0.100973,-0.163378 1.395824,-1.213842 2.877446,-2.334363 3.587424,-2.713099 4.417432,-3.482843 4.846396,-4.494518 l 0.361004,-0.851398 V 70.884799 66.497537 L 79.372202,65.65078 c -0.436047,-0.853438 -1.858704,-2.301965 -2.260853,-2.301965 -0.119312,0 -0.21693,-0.129067 -0.21693,-0.286816 0,-0.543117 2.1375,1.407067 2.655843,2.423103 l 0.519157,1.017632 v 4.384664 4.384663 l -0.370766,0.887369 c -0.203922,0.488053 -0.769469,1.247136 -1.256771,1.68685 -1.295786,1.169245 -6.93734,5.454662 -6.721892,5.10606 z"
         id="path2" /><path
         style="fill:#333333;fill-opacity:1"
         d="m 74.543716,108.39652 c -2.220347,-1.07534 -5.119294,-5.34699 -6.024955,-8.877863 L 68.097664,97.87694 68.25377,96.024536 c 0.345588,-4.100882 0.875731,-4.604129 2.687524,-2.551172 1.701468,1.927946 3.780483,3.664143 6.095474,5.090366 1.013114,0.62416 1.8986,1.17842 1.967746,1.231688 0.06915,0.05327 -0.357851,0.543362 -0.948883,1.089102 l -1.074604,0.99226 -0.173954,2.84305 c -0.235576,3.85018 -0.619021,4.47307 -2.263357,3.67669 z m 29.439154,0.0736 -0.47122,-0.34456 -0.19167,-3.13991 c -0.22666,-3.71292 -0.0338,-3.05209 -1.21607,-4.16746 -0.54134,-0.51073 -0.92829,-0.976395 -0.85989,-1.034821 0.0684,-0.05843 1.19592,-0.808919 2.50561,-1.667762 1.30969,-0.858843 3.43063,-2.615591 4.7132,-3.903883 2.61438,-2.626029 2.49537,-2.605548 2.98748,-0.514119 1.268,5.388907 -2.06719,13.420275 -6.15783,14.828465 l -0.8384,0.28861 z m -14.729426,-3.97306 c -0.246227,-0.51635 -0.523579,-1.41342 -0.616338,-1.9935 l -0.168652,-1.05469 h 1.626357 1.626356 l -0.174864,0.7276 c -0.389981,1.62269 -1.063987,3.10895 -1.442979,3.18194 l -0.402194,0.0775 z M 85.171113,98.399134 C 80.148508,97.035891 71.338169,90.533336 71.338169,88.189597 c 0,-1.091492 8.747835,-7.639084 10.20935,-7.64151 l 0.816643,-0.0014 2.712689,2.008198 2.712688,2.008198 0.499754,1.100656 0.499755,1.100656 0.0058,5.589999 0.0058,5.589999 -0.330729,0.266428 c -0.610566,0.491858 -1.907585,0.565881 -3.298827,0.188268 z m 7.333723,0.192588 c -0.363802,-0.04992 -0.810287,-0.283685 -0.992188,-0.519485 l -0.330729,-0.428728 v -5.381886 -5.381887 l 0.365326,-0.851398 c 0.432709,-1.008436 1.448179,-1.996767 4.112611,-4.0027 l 1.964396,-1.478906 h 0.966566 0.966565 l 1.997227,1.521354 c 1.09848,0.836745 3.14306,2.397857 4.54352,3.469138 l 2.54629,1.947783 v 0.739163 0.739162 l -0.90684,1.085419 c -3.61169,4.322906 -11.941564,8.994546 -15.232744,8.542971 z M 68.985511,83.774612 68.459077,83.324857 67.656312,80.679024 c -1.838507,-6.05953 -2.085494,-11.251371 -0.786676,-16.536459 0.790283,-3.21578 1.598454,-5.510741 2.100657,-5.965228 l 0.553599,-0.501001 0.885637,0.521136 c 0.487101,0.286624 2.115704,1.470647 3.619118,2.631162 4.525327,3.493189 4.774389,3.718039 5.341365,4.822146 l 0.434824,0.846757 v 4.387262 4.387262 l -0.361004,0.851398 c -0.397689,0.937917 -1.282536,1.794134 -3.87233,3.747042 -0.945885,0.713271 -2.493698,1.912386 -3.439583,2.6647 -2.096178,1.667202 -2.472276,1.815352 -3.146408,1.239411 z m 41.016169,0.179161 c -0.34491,-0.131183 -0.94876,-0.504949 -1.3419,-0.830591 -0.39313,-0.325641 -1.11276,-0.889731 -1.59917,-1.253533 -0.48641,-0.363803 -2.08521,-1.616449 -3.55289,-2.78366 l -2.66851,-2.122202 -0.31579,-0.920506 -0.3158,-0.920507 -0.0149,-4.215944 -0.0149,-4.215944 0.53846,-1.075723 0.53846,-1.075723 2.42304,-1.852083 c 1.33267,-1.018646 3.31607,-2.536693 4.40755,-3.373438 2.97448,-2.280263 3.17451,-2.165411 4.49286,2.579688 1.07127,3.855767 1.35357,5.775048 1.35597,9.218855 l 0.002,2.868855 -0.53544,2.62745 c -0.71126,3.490169 -1.73273,6.666476 -2.30681,7.173115 l -0.46505,0.410406 z m -22.893107,-3.94817 -2.028514,-1.599463 0.181394,-0.293501 0.181393,-0.293501 -0.322135,0.199091 -0.322136,0.199091 -0.549012,-0.48894 C 83.947607,77.459463 83.538391,76.856311 83.340194,76.388042 L 82.979836,75.536645 V 70.863022 66.1894 l 0.550437,-0.890626 c 0.30274,-0.489844 1.681375,-1.783819 3.063632,-2.8755 l 2.513196,-1.984876 h 0.858545 0.858545 l 1.18864,0.859896 c 2.611467,1.88921 4.162194,3.285838 4.626977,4.167188 l 0.488351,0.926041 0.03529,4.261536 0.03529,4.261535 -0.337424,0.9815 c -0.437727,1.273262 -0.841838,1.702328 -3.662397,3.888551 L 90.8503,81.605065 H 89.99369 89.137079 Z M 75.831184,58.145452 c -4.768533,-3.664686 -4.747692,-3.64472 -4.753547,-4.554092 l -0.0041,-0.629331 2.182812,-2.179861 c 3.435169,-3.430525 8.763441,-6.602862 12.277008,-7.309464 l 1.627528,-0.327307 0.687576,0.450517 0.687576,0.450517 v 5.598906 5.598907 l -0.540605,1.075723 c -0.527738,1.050119 -2.166973,2.51176 -4.816858,4.295001 l -1.310296,0.881764 h -0.83821 -0.83821 z m 19.524676,1.289507 -2.718733,-2.061772 -0.595312,-1.16929 -0.595313,-1.16929 V 49.68561 44.336613 l 0.394154,-0.394154 c 0.216784,-0.216784 0.750583,-0.472439 1.18622,-0.56812 l 0.792066,-0.173967 1.509957,0.438956 c 3.892364,1.131541 10.082251,5.117892 12.440161,8.011586 l 1.13994,1.398974 v 0.736258 0.736258 l -0.85989,0.677975 c -2.65676,2.094694 -6.28631,4.898103 -7.18345,5.548394 l -1.031886,0.747959 h -0.879591 -0.87959 z m -32.663592,-0.13811 c -0.265223,-0.33681 -0.811037,-0.827665 -1.212919,-1.090788 l -0.730695,-0.478405 -0.856805,0.1712 c -0.471243,0.09416 -1.775699,0.525484 -2.898791,0.958497 l -2.041985,0.787295 h -1.348846 c -0.741866,0 -1.575698,-0.121407 -1.852962,-0.269794 l -0.504116,-0.269795 0.168358,-0.854684 c 1.279202,-6.494001 9.85263,-14.491502 15.520761,-14.478142 l 1.096609,0.0026 1.322917,0.644395 c 1.386605,0.675418 1.879955,1.032875 2.477505,1.795074 l 0.360838,0.460264 -1.634682,1.920986 c -2.117239,2.48806 -5.290927,7.256566 -6.341215,9.527757 -0.940521,2.033826 -0.882021,1.988777 -1.523972,1.173555 z m 52.729772,-1.935425 c -1.34406,-2.635402 -4.75177,-7.605057 -6.56925,-9.580314 l -1.05622,-1.147913 0.74659,-0.779274 c 0.41063,-0.4286 1.37939,-1.088871 2.1528,-1.467269 l 1.40622,-0.687995 1.64465,0.132017 c 5.43459,0.436237 12.62939,7.070257 14.62486,13.484964 l 0.46893,1.507451 -0.34091,0.410779 -0.34092,0.410778 h -1.42942 c -0.7921,0 -2.10478,-0.247003 -2.94416,-0.553995 -0.83311,-0.304698 -2.04746,-0.723757 -2.69856,-0.931242 l -1.18381,-0.377247 -0.79587,0.277443 c -0.43773,0.152593 -1.15596,0.626454 -1.59607,1.053024 l -0.8002,0.775582 z M 82.867355,40.263919 c -0.214094,-0.327422 -0.66216,-1.190625 -0.995702,-1.918229 l -0.60644,-1.322917 -0.0026,-2.273292 -0.0026,-2.273293 1.010847,-1.991527 1.010848,-1.991527 1.370402,-1.363898 c 1.567147,-1.559709 3.353556,-2.805643 4.630765,-3.229737 l 0.879113,-0.291906 1.747337,0.860211 1.747337,0.860211 1.718659,1.74423 1.71866,1.74423 0.810072,1.721899 0.810073,1.721899 0.0039,2.513542 0.0039,2.513542 -0.772916,1.526801 c -0.425104,0.839741 -0.910977,1.641382 -1.079717,1.781424 l -0.306802,0.254622 -1.830411,-0.387767 c -2.357642,-0.499459 -7.134651,-0.49719 -9.50323,0.0045 -1.018592,0.215754 -1.87905,0.392281 -1.91213,0.392281 -0.03308,0 -0.235313,-0.267891 -0.449408,-0.595313 z"
         id="path1" /></g></g></svg>
